<svg width="1064" height="252" viewBox="0 0 1064 252" xmlns="http://www.w3.org/2000/svg"><title>gpoba-reverse</title><path d="M417.46 51.888C439.852 19.728 477.503 0 522.69 0c53.698 0 96.843 28.14 116.142 71.983V4.017h128.194c46.384 0 70.123 29.584 70.123 62.09 0 30.312-18.993 51.13-42.002 55.878 22.642 3.46 40.952 22.623 45.603 47.234L904.405 4.016h65.01l93.866 243.605h-58.8l-15.343-41.27H884.682l-15.34 41.27h-58.8l4.597-11.932c-11.235 7.536-25.962 11.932-44.097 11.932h-132.21v-67.6c-19.3 43.844-62.445 71.983-116.142 71.983-68.07 0-119.04-44.774-126.515-109.362-13.566 11.225-32.08 18.056-55.055 18.056h-62.088v86.922H227.17v-34.744c-24.29 24.004-56.862 39.127-97.15 39.127C58.436 252.005 0 202.7 0 126.002 0 48.94 58.436 0 130.02 0c47.502 0 78.458 22.71 97.15 49.476V4.016h113.95c39.55.002 65.655 19.964 76.34 47.872zm-190.29 4.328l-39.445 21.577c-11.32-17.166-32.14-31.775-57.705-31.775-44.557 0-76.697 33.966-76.697 79.984 0 46.02 32.14 79.985 76.697 79.985 21.548 0 41.636-9.496 51.497-18.627v-29.218h-64.28v-45.288H227.17V56.216zm295.52 149.77c-45.287 0-74.14-34.696-74.14-79.984 0-45.653 28.853-79.984 74.14-79.984 44.923 0 73.776 34.33 73.776 79.984 0 45.288-28.853 79.985-73.775 79.985zm235.205-59.53h-67.2v55.513h67.2c19.357 0 31.044-10.227 31.044-27.758 0-15.34-10.957-27.757-31.045-27.757zm216.998 14.243L936.91 55.88 898.925 160.7h75.967zM333.815 49.67h-54.783v65.376h54.783c20.453 0 36.158-12.418 36.158-32.505 0-20.452-15.705-32.87-36.158-32.87zm421.89 0h-65.01v51.132h65.01c17.53 0 28.486-9.86 28.486-25.566 0-14.974-10.955-25.565-28.486-25.565z" fill="#FFF" fill-rule="evenodd"/></svg>