<svg width="1070" height="262" viewBox="0 0 1070 262" xmlns="http://www.w3.org/2000/svg"><title>gpoba</title><g fill="none" fill-rule="evenodd"><path d="M1069.2 256.545L971.953 4.162H904.6l-97.245 252.383h60.92l15.893-42.757h108.218l15.894 42.757h60.92zm-91.57-90.056h-78.705l39.352-108.597L977.63 166.49z" fill="#CC354E"/><path d="M842.78 164.604c3.023 7.63 4.702 16.054 4.702 24.896 0 27.453-12.887 50.806-38.1 61.783l33.4-86.68z" fill="#801939"/><path d="M771.48 256.545c48.433 0 73.407-30.27 73.407-68.488 0-31.406-21.19-57.514-48.433-61.676 23.838-4.918 43.514-26.486 43.514-57.892 0-33.677-24.595-64.326-72.65-64.326H634.504v252.383H771.48zm-15.892-152.11h-67.353V51.46h67.353c18.162 0 29.514 10.973 29.514 26.487 0 16.27-11.352 26.487-29.514 26.487zm2.27 104.812h-69.623v-57.515h69.623c20.81 0 32.163 12.866 32.163 28.758 0 18.162-12.107 28.757-32.162 28.757z" fill="#95855F"/><path d="M634.504 47.714C651.932 69.73 662 98.184 662 130.544c0 32.358-10.068 60.813-27.496 82.828V47.714z" fill="#706445"/><path d="M527.334 261.086c76.056 0 131.68-54.488 131.68-130.543C659.013 54.487 603.39 0 527.333 0 450.9 0 395.278 54.487 395.278 130.543c0 76.055 55.622 130.543 132.056 130.543zm0-47.677c-46.92 0-76.812-35.947-76.812-82.867 0-47.298 29.892-82.867 76.812-82.867 46.542 0 76.434 35.57 76.434 82.867 0 46.92-29.892 82.866-76.434 82.866z" fill="#F5A100"/><path d="M425.402 44.55c7.075 12.428 10.718 27.006 10.718 42.46 0 29.25-13.443 55.474-38.537 69.716-1.518-8.385-2.305-17.13-2.305-26.183 0-33.933 11.072-63.572 30.124-85.994z" fill="#B17200"/><path d="M284.047 256.545V166.49h64.326c54.487 0 84.758-37.082 84.758-80.975 0-44.27-29.89-81.353-84.757-81.353H230.316v252.383h53.73zm56.758-137.354h-56.758V51.46h56.758c21.19 0 37.46 12.865 37.46 34.055 0 20.81-16.27 33.676-37.46 33.676z" fill="#59B243"/><path d="M244.777 116.92v96.868c-4.508 5.038-9.33 9.763-14.46 14.13V116.92h14.46zm-14.46-74.733c4.12 4.808 7.746 9.757 10.89 14.687l-10.89 5.908V42.187z" fill="#467823"/><path d="M134.705 261.086c45.407 0 81.353-18.54 107.084-47.298V116.92H121.46v46.92h66.596v30.272c-10.217 9.46-31.028 19.297-53.353 19.297-46.163 0-79.46-35.19-79.46-82.867 0-47.677 33.297-82.867 79.46-82.867 26.487 0 48.055 15.136 59.785 32.92l44.27-24.217C219.843 26.486 186.924 0 134.706 0 60.542 0 0 50.703 0 130.543c0 79.46 60.542 130.543 134.705 130.543z" fill="#649ABF"/></g></svg>