<?xml version="1.0" encoding="UTF-8" standalone="no"?>
<!DOCTYPE svg PUBLIC "-//W3C//DTD SVG 1.1//EN" "http://www.w3.org/Graphics/SVG/1.1/DTD/svg11.dtd">
<svg width="100%" height="100%" viewBox="0 0 1280 501" version="1.1" xmlns="http://www.w3.org/2000/svg" xmlns:xlink="http://www.w3.org/1999/xlink" xml:space="preserve" style="fill-rule:evenodd;clip-rule:evenodd;stroke-linejoin:round;stroke-miterlimit:1.41421;">
    <g transform="matrix(1,0,0,1,-0,-779)">
        <g id="color" transform="matrix(1,0,0,1,0,779.542)">
            <g transform="matrix(15.7661,6.90253e-30,-1.42981e-29,15.7661,-2186.63,-1125.73)">
                <path d="M213.067,95.251L206.899,79.243L202.627,79.243L196.459,95.251L200.323,95.251L201.331,92.539L208.195,92.539L209.203,95.251L213.067,95.251ZM207.259,89.539L202.267,89.539L204.763,82.651L207.259,89.539Z" style="fill:rgb(203,54,78);fill-rule:nonzero;"/>
            </g>
            <g transform="matrix(1,0,0,1,0,-779.542)">
                <path d="M946.182,1063.6C949.203,1071.23 950.883,1079.66 950.883,1088.5C950.883,1115.95 937.996,1139.31 912.784,1150.28L946.182,1063.6Z" style="fill:rgb(128,25,57);"/>
            </g>
            <g transform="matrix(15.7661,6.80393e-30,-1.41995e-29,15.7661,-2176.72,-1125.73)">
                <path d="M193.555,95.251C196.627,95.251 198.211,93.331 198.211,90.907C198.211,88.915 196.867,87.259 195.139,86.995C196.651,86.683 197.899,85.315 197.899,83.323C197.899,81.187 196.339,79.243 193.291,79.243L184.867,79.243L184.867,95.251L193.555,95.251ZM192.547,85.603L188.275,85.603L188.275,82.243L192.547,82.243C193.699,82.243 194.419,82.939 194.419,83.923C194.419,84.955 193.699,85.603 192.547,85.603ZM192.691,92.251L188.275,92.251L188.275,88.603L192.691,88.603C194.011,88.603 194.731,89.419 194.731,90.427C194.731,91.579 193.963,92.251 192.691,92.251Z" style="fill:rgb(149,133,95);fill-rule:nonzero;"/>
            </g>
            <g transform="matrix(1,0,0,1,0,-779.542)">
                <path d="M737.905,946.713C755.333,968.728 765.402,997.183 765.402,1029.54C765.402,1061.9 755.333,1090.36 737.905,1112.37L737.905,946.713Z" style="fill:rgb(112,100,69);"/>
            </g>
            <g transform="matrix(15.7661,6.90253e-30,-1.45939e-29,15.7661,-2163.57,-1125.73)">
                <path d="M177.235,95.539C182.059,95.539 185.587,92.083 185.587,87.259C185.587,82.435 182.059,78.979 177.235,78.979C172.387,78.979 168.859,82.435 168.859,87.259C168.859,92.083 172.387,95.539 177.235,95.539ZM177.235,92.515C174.259,92.515 172.363,90.235 172.363,87.259C172.363,84.259 174.259,82.003 177.235,82.003C180.187,82.003 182.083,84.259 182.083,87.259C182.083,90.235 180.187,92.515 177.235,92.515Z" style="fill:rgb(245,161,0);fill-rule:nonzero;"/>
            </g>
            <g transform="matrix(1,0,0,1,0,-779.542)">
                <path d="M528.803,943.548C535.878,955.978 539.521,970.555 539.521,986.008C539.521,1015.26 526.078,1041.48 500.984,1055.72C499.466,1047.34 498.678,1038.59 498.678,1029.54C498.678,995.609 509.75,965.97 528.803,943.548Z" style="fill:rgb(177,114,0);"/>
            </g>
            <g transform="matrix(15.7661,6.80393e-30,-1.41009e-29,15.7661,-2149.55,-1125.73)">
                <path d="M160.915,95.251L160.915,89.539L164.995,89.539C168.451,89.539 170.371,87.187 170.371,84.403C170.371,81.595 168.475,79.243 164.995,79.243L157.507,79.243L157.507,95.251L160.915,95.251ZM164.515,86.539L160.915,86.539L160.915,82.243L164.515,82.243C165.859,82.243 166.891,83.059 166.891,84.403C166.891,85.723 165.859,86.539 164.515,86.539Z" style="fill:rgb(90,178,67);fill-rule:nonzero;"/>
            </g>
            <g transform="matrix(1,0,0,1,0,-779.542)">
                <path d="M348.178,1015.92L348.178,1112.79C343.67,1117.83 338.849,1122.55 333.717,1126.92L333.717,1015.92L348.178,1015.92ZM333.717,941.186C337.839,945.994 341.464,950.943 344.609,955.873L333.717,961.781L333.717,941.186Z" style="fill:rgb(70,120,35);"/>
            </g>
            <g transform="matrix(15.7661,6.80393e-30,-1.43967e-29,15.7661,-2144.51,-1125.73)">
                <path d="M151.123,95.539C154.003,95.539 156.283,94.363 157.915,92.539L157.915,86.395L150.283,86.395L150.283,89.371L154.507,89.371L154.507,91.291C153.859,91.891 152.539,92.515 151.123,92.515C148.195,92.515 146.083,90.283 146.083,87.259C146.083,84.235 148.195,82.003 151.123,82.003C152.803,82.003 154.171,82.963 154.915,84.091L157.723,82.555C156.523,80.659 154.435,78.979 151.123,78.979C146.419,78.979 142.579,82.195 142.579,87.259C142.579,92.299 146.419,95.539 151.123,95.539Z" style="fill:rgb(100,154,190);fill-rule:nonzero;"/>
            </g>
        </g>
    </g>
</svg>
