<?xml version="1.0" standalone="no"?>
<!DOCTYPE svg PUBLIC "-//W3C//DTD SVG 20010904//EN"
 "http://www.w3.org/TR/2001/REC-SVG-20010904/DTD/svg10.dtd">
<svg version="1.0" xmlns="http://www.w3.org/2000/svg"
 width="400.000000pt" height="400.000000pt" viewBox="0 0 400.000000 400.000000"
 preserveAspectRatio="xMidYMid meet">
<metadata>
Created by potrace 1.11, written by Peter Selinger 2001-2013
</metadata>
<g transform="translate(0.000000,400.000000) scale(0.100000,-0.100000)"
fill="#000000" stroke="none">
<path d="M695 2376 c-247 -61 -366 -330 -249 -563 108 -212 441 -271 622 -110
l22 20 0 -46 0 -47 80 0 80 0 0 135 0 135 130 0 c94 0 141 4 167 15 19 8 37
15 39 15 2 0 10 -22 18 -50 19 -62 74 -146 121 -183 151 -119 387 -108 531 25
l44 41 0 -67 0 -67 248 3 c136 2 256 7 266 12 14 7 17 6 12 -2 -5 -9 17 -12
83 -12 l90 0 22 60 22 60 166 0 166 0 21 -57 20 -58 87 -3 c48 -1 87 0 87 4 0
4 -64 173 -142 376 l-141 368 -98 0 c-68 0 -98 -4 -102 -12 -3 -7 -44 -114
-92 -238 -81 -211 -105 -264 -105 -230 0 24 -52 82 -88 97 l-35 15 39 21 c74
42 104 147 65 232 -44 96 -83 108 -363 113 l-228 4 0 -72 0 -73 -44 41 c-152
140 -405 143 -550 8 -21 -20 -40 -35 -41 -34 -33 51 -55 71 -103 95 -56 27
-61 28 -264 32 l-208 3 0 -63 0 -63 -37 35 c-51 48 -80 64 -143 83 -63 19
-145 19 -215 2z m160 -137 c26 -7 63 -27 88 -50 l44 -38 51 30 52 29 0 -85 0
-85 -165 0 -165 0 0 -70 0 -70 100 0 100 0 0 -49 c0 -49 0 -49 -47 -73 -65
-31 -161 -31 -219 -1 -83 44 -126 119 -126 223 0 122 60 207 172 241 37 11 66
10 115 -2z m1199 -1 c24 -7 59 -30 83 -54 119 -119 86 -342 -61 -410 -97 -45
-197 -25 -268 54 -42 47 -58 94 -58 172 0 78 16 125 58 172 64 72 150 94 246
66z m-586 -9 c64 -22 85 -113 37 -161 -31 -31 -63 -38 -171 -38 l-84 0 0 105
0 105 94 0 c51 0 107 -5 124 -11z m1241 -4 c47 -24 56 -83 19 -122 -20 -22
-29 -23 -145 -23 l-123 0 0 80 0 80 110 0 c78 0 119 -4 139 -15z m563 -172
l56 -158 -115 -3 c-64 -1 -117 -1 -119 1 -6 5 108 317 115 317 4 0 32 -71 63
-157z m-553 -128 c63 -32 57 -130 -9 -154 -18 -6 -82 -11 -141 -11 l-109 0 0
90 0 90 115 0 c83 0 124 -4 144 -15z"/>
</g>
</svg>
